# xmcd
#
# Track frame offsets:
#	150
#	21569
#	40482
#	57217
#	75614
#	95424
#	121849
#	141749
#	159641
#	175609
#	192223
#	207292
#	221946
#	242168
#
# Disc length: 3483 seconds
#
# Revision: 2
# Processed by: cddbd v1.5.2PL0 Copyright (c) Steve Scherf et al.
# Submitted via: EZCDAudioConverter 8.2.2.1
#
DISCID=cf0d990e
DTITLE=LEANDRO and LEONARDO - RCA 100 ANOS DE MÚSICA - CD 01 [CD 74321884502) BM
DTITLE=G RCA
DYEAR=2001
DGENRE=SERTANEJO
TTITLE0=LEONARDO - 120...150...200 KM POR HORA (BY GILMAR SINISTRO)
TTITLE1=LEANDRO and LEONARDO - AMOR DIVIDIDO (BY GILMAR SINISTRO)
TTITLE2=LEONARDO - FEITIÇO (BY GILMAR SINISTRO)
TTITLE3=LEANDRO and LEONARDO - DOCE MISTÉRIO (AO VIVO) (BY GILMAR SINISTRO)
TTITLE4=LEONARDO - MENTIRA QUE VIROU PAIXÃO (BY GILMAR SINISTRO)
TTITLE5=LEONARDO - CANÇÃO DO 3º MILÊNIO (BY GILMAR SINISTRO)
TTITLE6=LEONARDO - EU JURO (I SWEAR) (AO VIVO) (BY GILMAR SINISTRO)
TTITLE7=LEANDRO and LEONARDO - UM SONHADOR (BY GILMAR SINISTRO)
TTITLE8=LEONARDO - AMOR DE TREM (BY GILMAR SINISTRO)
TTITLE9=LEONARDO - PENSE EM MIM (PIENSA EN MI) (PENSE EM MIM) (AO VIVO) (BY GI
TTITLE9=LMAR SINISTRO)
TTITLE10=LEANDRO and LEONARDO - MEXE MEXE (AO VIVO) (BY GILMAR SINISTRO)
TTITLE11=LEONARDO - BOTO PRA REMEXER (BY GILMAR SINISTRO)
TTITLE12=LEONARDO - COMO ESQUECER DE VOCÊ (BY GILMAR SINISTRO)
TTITLE13=LEONARDO - MANO (BY GILMAR SINISTRO)
EXTD=
EXTT0=
EXTT1=
EXTT2=
EXTT3=
EXTT4=
EXTT5=
EXTT6=
EXTT7=
EXTT8=
EXTT9=
EXTT10=
EXTT11=
EXTT12=
EXTT13=
PLAYORDER=
